<svg version="1.2" baseProfile="tiny-ps" xmlns="http://www.w3.org/2000/svg" viewBox="0 0 1200 1600" width="1200" height="1600"><title>Untitled-1 (5)-svg</title><defs><clipPath clipPathUnits="userSpaceOnUse" id="cp1"><path d="M-1742.08 -1646.61L1197.4 -1646.61L1197.4 2471.42L-1742.08 2471.42L-1742.08 -1646.61Z" /></clipPath></defs><style>tspan { white-space:pre }.shp0 { fill: #bfd1d9 } .shp1 { fill: #ebebeb } .shp2 { fill: #85acbd } .shp3 { fill: #ce3c13 } .shp4 { fill: #c3340c } .shp5 { fill: #e34c23 } .shp6 { fill: #c63e19 } .shp7 { fill: #ffffff } .shp8 { fill: none;stroke: #ffffff;stroke-linecap:square;stroke-width: 20.942 } .shp9 { fill: none;stroke: #535353;stroke-linecap:round;stroke-width: 54.675 } </style><g clip-path="url(#cp1)"><g ><g ><g ><path class="shp0" d="M126.03 112.33L1097.05 116.43C1152.67 116.67 1197.65 162.02 1197.42 217.65L1192.1 1476.97C1191.87 1532.6 1146.51 1577.57 1090.88 1577.33L119.87 1573.23C64.24 1573 19.27 1527.65 19.5 1472.02L24.82 212.7C25.05 157.07 70.41 112.1 126.03 112.33Z" /><path class="shp1" d="M142.21 189.17L1080.14 193.12C1103.8 193.23 1122.93 212.52 1122.83 236.18L1117.68 1457.81C1117.57 1481.47 1098.28 1500.6 1074.62 1500.5L136.69 1496.54C113.03 1496.44 93.9 1477.15 94 1453.48L99.16 231.86C99.26 208.2 118.55 189.07 142.21 189.17Z" /><path class="shp2" d="M414.14 15.67L812 17.26L811.24 208.04L413.38 206.45L414.14 15.67Z" /></g><g ><path class="shp3" d="M258.36 1108.13C181.29 1107.81 118.99 1044.98 119.32 967.92C119.64 890.85 249.75 688.86 260.13 688.9L258.36 1108.13L258.36 1108.13Z" /><path class="shp4" d="M257.32 1108.13C334.38 1108.46 397.22 1046.16 397.54 969.09C397.87 892.03 268.12 688.93 259.09 688.9L257.32 1108.13L257.32 1108.13Z" /><path class="shp3" d="M569.44 1225.12C492.38 1224.79 430.07 1161.96 430.4 1084.9C430.72 1007.83 560.83 805.84 571.22 805.88L569.44 1225.12L569.44 1225.12Z" /><path class="shp4" d="M568.4 1225.12C645.47 1225.44 708.3 1163.13 708.63 1086.07C708.95 1009.01 579.21 805.92 570.17 805.88L568.4 1225.12L568.4 1225.12Z" /><path class="shp5" d="M395.43 1467.89C275.53 1467.38 178.58 1369.63 179.08 1249.71C179.59 1129.8 382.04 815.51 398.19 815.58L395.43 1467.89L395.43 1467.89Z" /><path class="shp6" d="M394.39 1467.89C514.31 1468.39 612.08 1371.45 612.58 1251.54C613.08 1131.62 411.22 815.63 397.15 815.57L394.39 1467.89L394.39 1467.89Z" /><path class="shp7" d="M434.54 1213.79L434.85 1141.89L358.78 1141.58L358.48 1213.47L286.57 1213.17L286.25 1289.24L358.15 1289.54L357.85 1361.44L433.92 1361.77L434.22 1289.87L506.12 1290.17L506.44 1214.1L434.54 1213.79Z" /></g><g ><path class="shp5" d="M815.09 740.9C805.3 740.16 779.66 686.55 685.3 591.4C604.88 510.29 543.2 459.74 543.53 381.02C543.87 302.28 608.06 238.63 686.79 238.96C744.93 239.21 794.93 255.9 816.92 305.94L816.92 305.94L815.09 740.9L815.09 740.9L815.09 740.9Z" /><path class="shp6" d="M813.93 740.89C825.12 741.29 844.2 692.42 944.97 592.49C1034.86 503.37 1088.17 462.04 1088.51 383.32C1088.84 304.58 1025.19 240.39 946.46 240.06C888.32 239.81 838.17 256.08 815.77 305.94L813.93 740.89L813.93 740.89Z" /><path class="shp8" d="M573.63 516.08L747.05 516.81C749.69 516.83 752.53 514.8 753.37 512.29L765.83 475.45C766.67 472.94 767.79 473.01 768.33 475.6L791.75 589.93C792.28 592.51 793.04 592.49 793.45 589.88L835.3 321.67C835.71 319.06 836.35 319.06 836.74 321.68L869.81 547.08C870.19 549.7 871.13 549.77 871.92 547.25L886.57 499.95C887.35 497.42 888.97 497.28 890.18 499.63L897.19 513.2C898.41 515.55 901.54 517.47 904.18 517.47L1053.65 518.11L1058.44 518.12L1058.44 518.12L1058.44 518.12" /></g><g ><path class="shp9" d="M153.51 308.83C169.8 307.74 266.35 308.15 443.18 310.06" /><path class="shp9" d="M152.39 574.08C168.68 572.98 265.23 573.39 442.05 575.29" /><path class="shp9" d="M331.91 486.42C340.22 485.29 389.47 485.5 479.65 487.04" /><path class="shp9" d="M152.76 485.66C157.74 484.52 187.21 484.64 241.18 486.03" /><path class="shp9" d="M153.13 397.25C164.46 396.13 231.54 396.42 354.38 398.1" /></g><g ><path class="shp9" d="M743.28 867.11C759.58 866.01 856.13 866.42 1032.95 868.33" /><path class="shp9" d="M742.17 1132.34C758.46 1131.25 855.01 1131.66 1031.83 1133.57" /><path class="shp9" d="M921.69 1044.68C930 1043.56 979.25 1043.76 1069.42 1045.31" /><path class="shp9" d="M742.54 1043.93C747.51 1042.79 776.98 1042.91 830.95 1044.3" /><path class="shp9" d="M742.91 955.52C754.23 954.4 821.32 954.68 944.17 956.37" /><path class="shp9" d="M743.33 1132.35C759.62 1131.26 856.17 1131.66 1032.99 1133.57" /><path class="shp9" d="M742.21 1397.58C758.5 1396.49 855.06 1396.89 1031.88 1398.8" /><path class="shp9" d="M921.73 1309.93C930.04 1308.8 979.29 1309.01 1069.47 1310.55" /><path class="shp9" d="M742.58 1309.17C747.56 1308.03 777.03 1308.15 830.99 1309.54" /><path class="shp9" d="M742.96 1220.76C754.27 1219.64 821.36 1219.92 944.21 1221.61" /></g></g></g></g></svg>